<?xml version="1.0" encoding="utf-8"?>
<!-- Generator: Adobe Illustrator 16.0.0, SVG Export Plug-In . SVG Version: 6.00 Build 0)  -->
<!DOCTYPE svg PUBLIC "-//W3C//DTD SVG 1.1//EN" "http://www.w3.org/Graphics/SVG/1.1/DTD/svg11.dtd">
<svg version="1.1" id="Capa_1" xmlns="http://www.w3.org/2000/svg" xmlns:xlink="http://www.w3.org/1999/xlink" x="0px" y="0px"
	 width="130px" height="130px" viewBox="0 0 130 130" enable-background="new 0 0 130 130" xml:space="preserve">
<g>
	<path fill="#212529" d="M129.404,67.738c0,17.188-7.217,32.755-18.891,44.053c-11.771,11.396-28.074,18.445-46.093,18.453h-0.155
		c-18.079-0.039-34.417-7.168-46.173-18.654C6.534,100.305-0.595,84.822-0.595,67.738c0-34.514,29.104-62.5,65.003-62.5
		C100.309,5.239,129.404,33.224,129.404,67.738z"/>
	<g>
		<path fill="#FFFFFF" d="M40.597,26.254c0,0-3.287,25.39,3.422,37.883c3.355,6.246,11.455,15.433,20.25,15.609
			c8.793,0.177,15.572-8.658,19.784-14.139c8.426-10.962,3.443-39.354,3.443-39.354S68.654,11.884,40.597,26.254z"/>
		<g>
			<path fill="#FFFFFF" d="M110.514,111.791c-11.771,11.396-28.074,18.445-46.092,18.453h-0.155
				c-18.079-0.039-34.417-7.168-46.173-18.654c3.341-9.564,9.839-15.176,16.168-18.707c0.691-0.392,1.41-0.756,2.141-1.095
				c0.895-0.417,1.81-0.802,2.724-1.153c1.497-0.58,3.009-1.082,4.458-1.523c5.685-1.733,10.523-2.574,10.523-3.721V68.299
				c0-2.88,0-4.946,0-4.946H74.43c0,0,0,1.557,0,3.857v18.181c0,1.282,5.937,2.183,12.461,4.364
				c1.187,0.392,2.398,0.834,3.592,1.329c0.996,0.411,1.984,0.859,2.947,1.355c0.521,0.267,1.036,0.547,1.545,0.841
				C101.121,96.864,107.314,102.461,110.514,111.791z"/>
		</g>
	</g>
</g>
</svg>
