<?xml version="1.0" encoding="utf-8"?>
<!-- Generator: Adobe Illustrator 16.0.0, SVG Export Plug-In . SVG Version: 6.00 Build 0)  -->
<!DOCTYPE svg PUBLIC "-//W3C//DTD SVG 1.1//EN" "http://www.w3.org/Graphics/SVG/1.1/DTD/svg11.dtd">
<svg version="1.1" id="Capa_1" xmlns="http://www.w3.org/2000/svg" xmlns:xlink="http://www.w3.org/1999/xlink" x="0px" y="0px"
	 width="130px" height="130px" viewBox="0 0 130 130" enable-background="new 0 0 130 130" xml:space="preserve">
<g>
	<path fill="#F9B145" d="M130.322,65.242c0,18.458-7.69,35.113-20.043,46.952c-11.636,11.14-27.403,18.004-44.777,18.051h-0.318
		c-18.649-0.041-35.454-7.937-47.278-20.552C6.997,98.063,0.322,82.433,0.322,65.242c0-35.894,29.104-64.998,65.004-64.998
		C101.228,0.244,130.322,29.348,130.322,65.242z"/>
	<g>
		<g>
			<path fill="#FCD6B6" d="M110.279,112.193c-11.636,11.14-27.403,18.004-44.777,18.051h-0.318
				c-18.649-0.041-35.454-7.937-47.278-20.552c3.442-9.249,9.684-14.772,15.762-18.302c0.691-0.407,1.411-0.785,2.141-1.139
				c0.895-0.435,1.81-0.834,2.725-1.199c1.497-0.603,3.008-1.124,4.458-1.586c2.419-0.767,4.689-1.369,6.492-1.896
				c2.44-0.706,4.032-1.289,4.032-1.973V65.824c0-2.996,0-5.143,0-5.143h20.321c0,0,0,1.62,0,4.011v18.905
				c0,0.858,2.467,1.56,5.971,2.548c1.932,0.548,4.174,1.186,6.491,1.991c1.187,0.406,2.399,0.869,3.593,1.384
				c0.994,0.426,1.984,0.893,2.947,1.408c0.521,0.277,1.037,0.568,1.545,0.875C100.759,95.672,107.195,101.797,110.279,112.193z"/>
		</g>
		<path fill="#432772" d="M110.279,112.193c-1.81,1.732-3.72,3.36-5.719,4.879c-1.641,1.245-3.348,2.412-5.104,3.497
			c-3.552,2.195-7.325,4.059-11.281,5.542c-7.054,2.655-14.699,4.106-22.673,4.133h-0.318c-7.997-0.02-15.646-1.478-22.714-4.133
			c-3.958-1.492-7.732-3.347-11.275-5.542c-1.755-1.085-3.449-2.252-5.089-3.497c-2.257-1.702-4.391-3.558-6.404-5.544
			c-0.609-0.598-1.206-1.212-1.796-1.836c0.21-0.569,0.434-1.118,0.665-1.661c0.874-2.031,1.884-3.875,3.002-5.541
			c0.84-1.263,1.742-2.427,2.69-3.497c1.931-2.195,4.039-4.011,6.193-5.543c1.064-0.76,2.141-1.437,3.211-2.06
			c0.691-0.407,1.411-0.785,2.141-1.139c0.217-0.103,0.434-0.204,0.651-0.299c0.684-0.324,1.375-0.624,2.073-0.9
			c0.366-0.15,0.732-0.293,1.097-0.428c1.132-0.426,2.263-0.812,3.361-1.158c0.353-0.115,0.706-0.225,1.05-0.325
			c2.02-0.616,3.904-1.117,5.441-1.571l9.466,4.383l6.228,2.888l6.307-2.888l8.322-3.808c1.497,0.427,3.186,0.908,4.947,1.478
			c0.507,0.162,1.023,0.331,1.544,0.514c0.874,0.301,1.77,0.63,2.657,0.991c0.311,0.128,0.624,0.256,0.936,0.393
			c0.322,0.142,0.649,0.284,0.973,0.433c0.666,0.306,1.33,0.632,1.975,0.976c0.521,0.277,1.037,0.568,1.545,0.875
			c0.841,0.508,1.681,1.057,2.506,1.646c2.156,1.523,4.262,3.348,6.194,5.543c0.948,1.07,1.851,2.234,2.69,3.497
			c1.117,1.666,2.134,3.51,3,5.541c0.481,1.105,0.916,2.272,1.303,3.497C110.145,111.744,110.211,111.969,110.279,112.193z"/>
		<path fill="#6B9EC5" d="M99.457,120.569c-3.552,2.195-7.325,4.059-11.281,5.542H42.47c-3.958-1.492-7.732-3.347-11.275-5.542
			H99.457z"/>
		<path fill="#6B9EC5" d="M110.279,112.193c-1.81,1.732-3.72,3.36-5.719,4.879H26.105c-2.257-1.702-4.391-3.558-6.404-5.544h90.375
			C110.145,111.744,110.211,111.969,110.279,112.193z"/>
		<path fill="#6B9EC5" d="M108.773,108.031H18.57c0.874-2.031,1.884-3.875,3.002-5.541h84.201
			C106.891,104.156,107.907,106,108.773,108.031z"/>
		<path fill="#6B9EC5" d="M103.083,98.993h-78.82c1.931-2.195,4.039-4.011,6.193-5.543h66.433
			C99.045,94.974,101.15,96.798,103.083,98.993z"/>
		<path fill="#6B9EC5" d="M49.483,85.57l9.466,4.383H36.46c0.684-0.324,1.375-0.624,2.073-0.9c1.497-0.603,3.008-1.124,4.458-1.586
			c0.353-0.115,0.706-0.225,1.05-0.325C46.062,86.525,47.946,86.024,49.483,85.57z"/>
		<path fill="#6B9EC5" d="M90.863,89.953H71.484l8.322-3.808c1.497,0.427,3.186,0.908,4.947,1.478
			c0.507,0.162,1.023,0.331,1.544,0.514c1.187,0.406,2.399,0.869,3.593,1.384C90.213,89.662,90.54,89.805,90.863,89.953z"/>
		<path opacity="0.3" fill="#441D4B" d="M88.955,89.128l-15.119,17.068l-8.51-7.203l-7.44,7.203L39.63,88.625
			c1.132-0.426,2.263-0.812,3.361-1.158c0.353-0.115,0.706-0.225,1.05-0.325c2.02-0.616,3.904-1.117,5.441-1.571l9.466,4.383
			l6.228,2.888l6.307-2.888l8.322-3.808c1.497,0.427,3.186,0.908,4.947,1.478c0.507,0.162,1.023,0.331,1.544,0.514
			C87.172,88.438,88.067,88.767,88.955,89.128z"/>
		<path fill="#FAC5A7" d="M73.836,64.693v12.942c-2.302,1.797-5.406,3.408-9.275,3.659c-5.639,0.357-9.156-2.014-11.046-3.937
			V65.824l19.854-1.858L73.836,64.693z"/>
		<path fill="#FCD6B6" d="M38.732,25.028c0,0-4.891,25.604,2.177,37.887c3.534,6.142,13.496,12.687,22.759,12.861
			s17.833-6.023,22.268-11.413c8.873-10.779,2.198-39.334,2.198-39.334S68.289,10.899,38.732,25.028z"/>
		<g>
			<path fill="#FCD6B6" d="M88.185,42.021c0,0,5.491-7.777,9.488-0.951c2.837,4.852-2.476,15.343-9.228,10.826L88.185,42.021z"/>
		</g>
		<path fill="#F6AB80" d="M92.174,42.101l-1.629,7.944c0,0,2.365,0.913,3.246-0.85c0.88-1.762-0.304-3.005-0.304-3.005
			s3.124-0.343,2.99-2.854C96.346,40.826,92.643,39.818,92.174,42.101z"/>
		<g>
			<path fill="#FCD6B6" d="M39.277,42.087c0,0-5.491-7.776-9.487-0.951c-2.841,4.851,2.474,15.344,9.227,10.825L39.277,42.087z"/>
		</g>
		<path fill="#F6AB80" d="M35.456,42.101l1.629,7.944c0,0-2.366,0.913-3.246-0.85c-0.881-1.762,0.304-3.005,0.304-3.005
			s-3.123-0.343-2.991-2.854S34.987,39.818,35.456,42.101z"/>
		<path fill="#441D4B" d="M37.083,23.107c0,0-0.366,37.777,0.191,45.769c0.556,7.991,23.351,14.349,26.287,14.349
			c2.938,0,26.8-5.992,26.8-15.619c0-9.626,0-44.498,0-44.498h-5.309v27.174l-9.961,4.66c0,0-1.618-5.337-12.049-5.337
			c-10.433,0-11.583,5.196-11.583,5.196l-9.177-4.518V22.38L37.083,23.107z"/>
		<g>
			<g>
				<ellipse fill="#441D4B" cx="52.787" cy="40.902" rx="2.656" ry="2.675"/>
				<ellipse fill="#441D4B" cx="74.566" cy="40.902" rx="2.657" ry="2.675"/>
			</g>
		</g>
		
			<ellipse transform="matrix(0.8373 0.5467 -0.5467 0.8373 33.4166 -18.1942)" fill="#F28F8D" cx="47.281" cy="47.054" rx="4.194" ry="3.724"/>
		<path fill="#F28F8D" d="M76.588,49.347c1.125,1.722,3.608,2.09,5.546,0.826c1.941-1.267,2.602-3.689,1.479-5.411
			c-1.127-1.722-3.609-2.092-5.548-0.826C76.125,45.203,75.464,47.625,76.588,49.347z"/>
		<path fill="#441D4B" d="M47.01,37.915c-0.313,0-0.626-0.107-0.88-0.325c-0.563-0.485-0.636-1.329-0.157-1.897
			c0.149-0.178,3.737-4.318,10.822-2.668c0.729,0.169,1.183,0.898,1.014,1.627c-0.171,0.729-0.901,1.183-1.627,1.013
			c-5.407-1.26-8.034,1.659-8.144,1.785C47.768,37.757,47.389,37.915,47.01,37.915z"/>
		<path fill="#441D4B" d="M76.029,36.693c-1.933,0-4.143-0.577-6.25-2.303c-0.579-0.474-0.664-1.328-0.188-1.906
			c0.475-0.579,1.329-0.664,1.907-0.19c3.94,3.227,7.845,0.858,7.883,0.834c0.636-0.396,1.473-0.202,1.868,0.433
			c0.396,0.636,0.202,1.472-0.434,1.867C79.829,36.044,78.084,36.693,76.029,36.693z"/>
		<path fill="#FFFFFF" d="M59.17,53.713l8.308-1.181c0,0-0.306,3.466-3.677,3.946C60.429,56.958,59.17,53.713,59.17,53.713z"/>
	</g>
	<path fill="#5E3263" d="M45.112,55.8c-1.272-0.545-4.36,12.351-2.544,13.985C44.386,71.419,46.383,56.345,45.112,55.8z"/>
	<path fill="#5E3263" d="M50.761,59.002c-1.32-0.414-3.087,12.728-1.115,14.171C51.618,74.616,52.08,59.416,50.761,59.002z"/>
	<path fill="#5E3263" d="M58.189,62.761c-1.335-0.359-2.561,12.844-0.529,14.204C59.69,78.323,59.525,63.12,58.189,62.761z"/>
	<path fill="#5E3263" d="M82.088,56.477c1.27-0.544,4.358,12.352,2.542,13.986C82.814,72.097,80.814,57.023,82.088,56.477z"/>
	<path fill="#5E3263" d="M76.437,59.681c1.32-0.414,3.09,12.729,1.117,14.17C75.58,75.294,75.119,60.095,76.437,59.681z"/>
	<path fill="#5E3263" d="M69.009,63.438c1.336-0.358,2.561,12.847,0.53,14.205C67.509,79.003,67.673,63.796,69.009,63.438z"/>
	<path fill="#F7B28F" d="M62.913,50.232c-0.862,0-1.69-0.141-2.178-0.578c-0.257-0.229-0.541-0.652-0.437-1.357
		c0.815-5.511,2.322-13.605,2.337-13.686c0.035-0.184,0.207-0.304,0.395-0.271c0.184,0.034,0.306,0.211,0.271,0.396
		c-0.016,0.081-1.519,8.163-2.333,13.661c-0.065,0.44,0.094,0.641,0.219,0.753c0.863,0.775,3.706,0.25,4.729-0.018
		c0.18-0.047,0.365,0.062,0.413,0.242c0.047,0.182-0.061,0.366-0.242,0.414C65.832,49.855,64.326,50.232,62.913,50.232z"/>
	<path fill="#AE3321" d="M38.314,23.685c0,0,5.102-17.286,25.5-17.286c21.064,0,24.797,18.61,24.797,18.61L38.314,23.685z"/>
	<path fill="#D43F20" d="M37.008,33.342c0,0,10.492-4.649,26.807-4.649c16.313,0,26.546,4.649,26.546,4.649s1.035-5.851,1.035-8.705
		c0-2.853-11.406-7.961-28.388-7.961c-16.981,0-27.346,4.958-27.947,6.609C34.459,24.938,37.008,33.342,37.008,33.342z"/>
	<path fill="#AE3321" d="M41.521,29.422c1.904-0.433,0.52-6.842-1.125-6.364C38.751,23.537,39.616,29.854,41.521,29.422z"/>
	<path fill="#AE3321" d="M47.818,27.533c1.904-0.433,0.519-6.841-1.125-6.364C45.047,21.647,45.913,27.965,47.818,27.533z"/>
	<path fill="#AE3321" d="M54.445,26.333c1.914-0.386,0.688-6.828-0.967-6.39C51.821,20.381,52.531,26.719,54.445,26.333z"/>
	<path fill="#AE3321" d="M60.897,25.18c1.932-0.277,1.069-6.777-0.609-6.434C58.61,19.09,58.964,25.458,60.897,25.18z"/>
	<path fill="#AE3321" d="M85.652,29.422c-1.902-0.433-0.517-6.842,1.128-6.364C88.424,23.537,87.558,29.854,85.652,29.422z"/>
	<path fill="#AE3321" d="M79.357,27.533c-1.903-0.433-0.519-6.841,1.126-6.364C82.126,21.647,81.263,27.965,79.357,27.533z"/>
	<path fill="#AE3321" d="M72.73,26.333c-1.915-0.386-0.688-6.828,0.97-6.39C75.354,20.381,74.646,26.719,72.73,26.333z"/>
	<path fill="#AE3321" d="M66.279,25.18c-1.933-0.277-1.07-6.777,0.608-6.434C68.565,19.09,68.211,25.458,66.279,25.18z"/>
	<path fill="#FFFFFF" d="M84.754,87.623l-11.562,13.139l-8.015-5.299l-7.292,5.299l-13.844-13.62
		c2.02-0.616,3.904-1.117,5.441-1.571l15.694,7.271l14.629-6.695C81.304,86.572,82.992,87.054,84.754,87.623z"/>
</g>
</svg>
