<?xml version="1.0" encoding="utf-8"?>
<!-- Generator: Adobe Illustrator 16.0.0, SVG Export Plug-In . SVG Version: 6.00 Build 0)  -->
<!DOCTYPE svg PUBLIC "-//W3C//DTD SVG 1.1//EN" "http://www.w3.org/Graphics/SVG/1.1/DTD/svg11.dtd">
<svg version="1.1" id="Capa_1" xmlns="http://www.w3.org/2000/svg" xmlns:xlink="http://www.w3.org/1999/xlink" x="0px" y="0px"
	 width="130px" height="130px" viewBox="0 0 130 130" enable-background="new 0 0 130 130" xml:space="preserve">
<g>
	<path fill="#6B9EC5" d="M129.405,67.738c0,17.188-7.217,32.755-18.892,44.053c-11.771,11.396-28.074,18.446-46.092,18.453h-0.155
		c-18.079-0.039-34.417-7.168-46.173-18.654C6.534,100.304-0.595,84.822-0.595,67.738c0-34.514,29.104-62.5,65.003-62.5
		C100.308,5.239,129.405,33.224,129.405,67.738z"/>
	<path fill="#441D4B" d="M84.374,63.353c10.815,0,12.701-33.583,6.086-39.192C91.66,7.014,78.29-0.123,70.871,8.407
		C60.968-5.925,51.7,0.96,54.108,11.157c-12.013-4.971-16.378,3.021-13.449,8.71c-7.662,2.439-4.732,14.028-2.817,17.437
		C31.741,68.595,48.771,65.53,48.771,65.53l38.34-6.235L84.374,63.353z"/>
	<g>
		<g>
			<path fill="#FCD6B6" d="M110.514,111.791c-11.771,11.396-28.074,18.446-46.092,18.453h-0.155
				c-18.079-0.039-34.417-7.168-46.173-18.654c3.341-9.565,9.839-15.176,16.168-18.707c0.691-0.392,1.41-0.756,2.141-1.095
				c0.895-0.417,1.81-0.802,2.724-1.153c1.497-0.58,3.009-1.082,4.458-1.524c5.685-1.733,10.523-2.574,10.523-3.721V68.299
				c0-2.88,0-4.946,0-4.946h20.322c0,0,0,1.557,0,3.857v18.18c0,1.283,5.936,2.183,12.461,4.365
				c1.186,0.391,2.398,0.834,3.591,1.329c0.997,0.411,1.985,0.86,2.948,1.355c0.521,0.267,1.036,0.548,1.545,0.841
				C101.121,96.864,107.314,102.461,110.514,111.791z"/>
		</g>
		<path fill="#FAC5A7" d="M74.43,67.21v12.446c-2.304,1.726-5.407,5.135-9.276,5.376c-5.638,0.345-9.155-3.793-11.045-5.644v-11.09
			l19.854-1.785L74.43,67.21z"/>
		<path fill="#FCD6B6" d="M40.597,26.254c0,0-3.287,25.39,3.422,37.883c3.355,6.246,11.455,15.434,20.25,15.609
			c8.794,0.177,15.572-8.658,19.784-14.139c8.425-10.962,3.443-39.353,3.443-39.353S68.655,11.884,40.597,26.254z"/>
		<g>
			<path fill="#FCD6B6" d="M39.871,45.475c0,0-5.49-7.479-9.487-0.914c-2.84,4.665,2.475,14.753,9.228,10.409L39.871,45.475z"/>
		</g>
		<g>
			<path fill="#FCD6B6" d="M88.776,45.41c0,0,5.491-7.478,9.488-0.914c2.84,4.665-2.475,14.754-9.228,10.409L88.776,45.41z"/>
		</g>
		<g>
			<g>
				<ellipse fill="#441D4B" cx="53.381" cy="44.334" rx="2.656" ry="2.573"/>
				<ellipse fill="#441D4B" cx="75.159" cy="44.334" rx="2.657" ry="2.573"/>
			</g>
		</g>
		<path fill="#F28F8D" d="M50.03,51.151c-1.125,1.656-3.608,2.011-5.547,0.794s-2.6-3.547-1.476-5.203
			c1.124-1.656,3.608-2.011,5.546-0.794C50.494,47.166,51.154,49.495,50.03,51.151z"/>
		<path fill="#F28F8D" d="M78.536,51.151c1.125,1.656,3.608,2.011,5.547,0.794c1.939-1.217,2.6-3.547,1.476-5.203
			s-3.607-2.011-5.547-0.794C78.073,47.166,77.412,49.495,78.536,51.151z"/>
		<path fill="#F7B28F" d="M63.471,52.367c-1.015,0-2.005-0.339-2.546-1.38c-1.228-2.362,1.347-11.743,1.457-12.141
			c0.048-0.174,0.235-0.275,0.415-0.231c0.181,0.046,0.289,0.225,0.241,0.398c-0.733,2.646-2.431,9.904-1.506,11.683
			c1.02,1.961,4.205,0.49,4.238,0.475c0.167-0.079,0.37-0.013,0.453,0.149c0.082,0.162,0.014,0.356-0.155,0.436
			C65.424,52.059,64.437,52.367,63.471,52.367z"/>
		<path fill="#441D4B" d="M47.601,41.469c-0.309,0-0.619-0.101-0.873-0.307c-0.573-0.464-0.646-1.286-0.163-1.836
			c0.149-0.17,3.739-4.153,10.822-2.565c0.729,0.163,1.182,0.864,1.013,1.564c-0.17,0.701-0.9,1.137-1.627,0.974
			c-5.488-1.23-8.11,1.677-8.136,1.707C48.37,41.312,47.987,41.469,47.601,41.469z"/>
		<path fill="#441D4B" d="M80.711,41.469c-0.383,0-0.763-0.154-1.03-0.455c-0.124-0.136-2.752-2.922-8.142-1.715
			c-0.728,0.164-1.458-0.272-1.628-0.974c-0.169-0.701,0.283-1.401,1.013-1.564c7.081-1.587,10.673,2.395,10.822,2.565
			c0.482,0.55,0.41,1.372-0.162,1.836C81.33,41.368,81.02,41.469,80.711,41.469z"/>
		<path fill="#AE3321" d="M71.231,54.948c0,0-1.335,5.499-7.073,5.499c-5.747,0-7.075-5.499-7.075-5.499H71.231z"/>
		<path fill="#F6AB80" d="M36.05,45.487l1.629,7.638c0,0-2.366,0.878-3.246-0.816c-0.881-1.694,0.304-2.889,0.304-2.889
			s-3.123-0.33-2.991-2.744C31.877,44.262,35.581,43.292,36.05,45.487z"/>
		<path fill="#F6AB80" d="M92.767,45.487l-1.629,7.638c0,0,2.365,0.878,3.246-0.816c0.881-1.694-0.304-2.889-0.304-2.889
			s3.122-0.33,2.991-2.744C96.938,44.262,93.234,43.292,92.767,45.487z"/>
	</g>
	<path fill="#441D4B" d="M38.34,33.191c0,0-2.681,15.756,2.417,22.464c0.269-4.155,1.001-19.647,1.001-19.647
		s5.373-4.695,4.761-10.446c14.768,7.747,36.494,12.676,34.191-0.469c3.401,5.869,5.72,9.624,5.72,9.624l1.93,20.188
		c2.685-1.75,4.875-9.418,2.252-18.076c-2.321-7.667-0.153-12.441-0.153-12.441l-8.41-10.563l-31.324,3.638l-8.356,3.638
		l-3.99,5.047L38.34,33.191z"/>
	<path fill="#D43F20" d="M110.514,111.791c-11.771,11.396-28.074,18.446-46.092,18.453h-0.155
		c-18.079-0.039-34.417-7.168-46.173-18.654c2.555-7.324,6.966-12.328,11.736-15.854c1.457-1.082,2.947-2.026,4.432-2.854
		c0.691-0.392,1.41-0.756,2.141-1.095c0.895-0.417,1.81-0.802,2.724-1.153c1.497-0.58,3.009-1.082,4.458-1.524
		c2.697-0.821,5.211-1.446,7.102-1.994c2.087-0.606,3.422-1.127,3.422-1.727v-1.655c2.67,1.975,7.474,5.532,7.956,5.937
		c0.677,0.56,2.094,4.919,2.094,4.919s0.88-4.183,1.984-5.135c0.739-0.639,5.333-3.577,8.288-5.44v1.375
		c0,0.521,0.982,0.978,2.595,1.492c2.338,0.736,5.997,1.576,9.866,2.873c1.186,0.391,2.398,0.834,3.591,1.329
		c0.997,0.411,1.985,0.86,2.948,1.355c0.521,0.267,1.036,0.548,1.545,0.841c0.359,0.208,0.725,0.43,1.084,0.658
		C101.84,97.535,107.504,103.008,110.514,111.791z"/>
	<path fill="#AE3321" d="M77.025,86.882l-12.759,13.312l-13.58-13.077c2.087-0.606,3.422-1.127,3.422-1.727v-1.655
		c2.67,1.975,7.474,5.532,7.956,5.937c0.677,0.56,2.094,4.919,2.094,4.919s0.88-4.183,1.984-5.135
		c0.739-0.639,5.333-3.577,8.288-5.44v1.375C74.431,85.911,75.413,86.367,77.025,86.882z"/>
	<path fill="#AE3321" d="M110.514,111.791c-11.771,11.396-28.074,18.446-46.092,18.453h-0.155
		c-18.079-0.039-34.417-7.168-46.173-18.654c2.555-7.324,6.966-12.328,11.736-15.854c3.605,9.272,14.081,30.533,34.545,30.533
		c20.605,0,29.035-22.676,31.685-32.331C101.84,97.535,107.504,103.008,110.514,111.791z"/>
	<path fill="#FFFFFF" d="M69.815,54.948c-0.379,0.84-1.544,1.968-5.007,2.176c-4.201,0.254-5.957-1.342-6.573-2.176H69.815z"/>
	<path fill="#441D4B" d="M60.309,61.715l3.79,1.222l3.907-1.222c0,0-0.151,3.457-3.907,6.026
		C60.651,65.272,60.309,61.715,60.309,61.715z"/>
</g>
</svg>
