<?xml version="1.0" encoding="utf-8"?>
<!-- Generator: Adobe Illustrator 16.0.0, SVG Export Plug-In . SVG Version: 6.00 Build 0)  -->
<!DOCTYPE svg PUBLIC "-//W3C//DTD SVG 1.1//EN" "http://www.w3.org/Graphics/SVG/1.1/DTD/svg11.dtd">
<svg version="1.1" id="Capa_1" xmlns="http://www.w3.org/2000/svg" xmlns:xlink="http://www.w3.org/1999/xlink" x="0px" y="0px"
	 width="130px" height="130px" viewBox="0 0 130 130" enable-background="new 0 0 130 130" xml:space="preserve">
<g display="none">
	<path display="inline" fill="#6B9EC5" d="M129.405,67.738c0,17.188-7.217,32.755-18.892,44.053
		c-11.771,11.396-28.074,18.446-46.092,18.453h-0.155c-18.079-0.039-34.417-7.168-46.173-18.654
		C6.534,100.304-0.595,84.822-0.595,67.738c0-34.514,29.104-62.5,65.003-62.5C100.308,5.239,129.405,33.224,129.405,67.738z"/>
	<path display="inline" fill="#441D4B" d="M84.374,63.353c10.815,0,12.701-33.583,6.086-39.192
		C91.66,7.014,78.29-0.123,70.871,8.407C60.968-5.925,51.7,0.96,54.108,11.157c-12.013-4.971-16.378,3.021-13.449,8.71
		c-7.662,2.439-4.732,14.028-2.817,17.437C31.741,68.595,48.771,65.53,48.771,65.53l38.34-6.235L84.374,63.353z"/>
	<g display="inline">
		<g>
			<path fill="#FCD6B6" d="M110.514,111.791c-11.771,11.396-28.074,18.446-46.092,18.453h-0.155
				c-18.079-0.039-34.417-7.168-46.173-18.654c3.341-9.565,9.839-15.176,16.168-18.707c0.691-0.392,1.41-0.756,2.141-1.095
				c0.895-0.417,1.81-0.802,2.724-1.153c1.497-0.58,3.009-1.082,4.458-1.524c5.685-1.733,10.523-2.574,10.523-3.721V68.299
				c0-2.88,0-4.946,0-4.946h20.322c0,0,0,1.557,0,3.857v18.18c0,1.283,5.936,2.183,12.461,4.365
				c1.186,0.391,2.398,0.834,3.591,1.329c0.997,0.411,1.985,0.86,2.948,1.355c0.521,0.267,1.036,0.548,1.545,0.841
				C101.121,96.864,107.314,102.461,110.514,111.791z"/>
		</g>
		<path fill="#FAC5A7" d="M74.43,67.21v12.446c-2.304,1.726-5.407,5.135-9.276,5.376c-5.638,0.345-9.155-3.793-11.045-5.644v-11.09
			l19.854-1.785L74.43,67.21z"/>
		<path fill="#FCD6B6" d="M40.597,26.254c0,0-3.287,25.39,3.422,37.883c3.355,6.246,11.455,15.434,20.25,15.609
			c8.794,0.177,15.572-8.658,19.784-14.139c8.425-10.962,3.443-39.353,3.443-39.353S68.655,11.884,40.597,26.254z"/>
		<g>
			<path fill="#FCD6B6" d="M39.871,45.475c0,0-5.49-7.479-9.487-0.914c-2.84,4.665,2.475,14.753,9.228,10.409L39.871,45.475z"/>
		</g>
		<g>
			<path fill="#FCD6B6" d="M88.776,45.41c0,0,5.491-7.478,9.488-0.914c2.84,4.665-2.475,14.754-9.228,10.409L88.776,45.41z"/>
		</g>
		<g>
			<g>
				<ellipse fill="#441D4B" cx="53.381" cy="44.334" rx="2.656" ry="2.573"/>
				<ellipse fill="#441D4B" cx="75.159" cy="44.334" rx="2.657" ry="2.573"/>
			</g>
		</g>
		<path fill="#F28F8D" d="M50.03,51.151c-1.125,1.656-3.608,2.011-5.547,0.794s-2.6-3.547-1.476-5.203
			c1.124-1.656,3.608-2.011,5.546-0.794C50.494,47.166,51.154,49.495,50.03,51.151z"/>
		<path fill="#F28F8D" d="M78.536,51.151c1.125,1.656,3.608,2.011,5.547,0.794c1.939-1.217,2.6-3.547,1.476-5.203
			s-3.607-2.011-5.547-0.794C78.073,47.166,77.412,49.495,78.536,51.151z"/>
		<path fill="#F7B28F" d="M63.471,52.367c-1.015,0-2.005-0.339-2.546-1.38c-1.228-2.362,1.347-11.743,1.457-12.141
			c0.048-0.174,0.235-0.275,0.415-0.231c0.181,0.046,0.289,0.225,0.241,0.398c-0.733,2.646-2.431,9.904-1.506,11.683
			c1.02,1.961,4.205,0.49,4.238,0.475c0.167-0.079,0.37-0.013,0.453,0.149c0.082,0.162,0.014,0.356-0.155,0.436
			C65.424,52.059,64.437,52.367,63.471,52.367z"/>
		<path fill="#441D4B" d="M47.601,41.469c-0.309,0-0.619-0.101-0.873-0.307c-0.573-0.464-0.646-1.286-0.163-1.836
			c0.149-0.17,3.739-4.153,10.822-2.565c0.729,0.163,1.182,0.864,1.013,1.564c-0.17,0.701-0.9,1.137-1.627,0.974
			c-5.488-1.23-8.11,1.677-8.136,1.707C48.37,41.312,47.987,41.469,47.601,41.469z"/>
		<path fill="#441D4B" d="M80.711,41.469c-0.383,0-0.763-0.154-1.03-0.455c-0.124-0.136-2.752-2.922-8.142-1.715
			c-0.728,0.164-1.458-0.272-1.628-0.974c-0.169-0.701,0.283-1.401,1.013-1.564c7.081-1.587,10.673,2.395,10.822,2.565
			c0.482,0.55,0.41,1.372-0.162,1.836C81.33,41.368,81.02,41.469,80.711,41.469z"/>
		<path fill="#AE3321" d="M71.231,54.948c0,0-1.335,5.499-7.073,5.499c-5.747,0-7.075-5.499-7.075-5.499H71.231z"/>
		<path fill="#F6AB80" d="M36.05,45.487l1.629,7.638c0,0-2.366,0.878-3.246-0.816c-0.881-1.694,0.304-2.889,0.304-2.889
			s-3.123-0.33-2.991-2.744C31.877,44.262,35.581,43.292,36.05,45.487z"/>
		<path fill="#F6AB80" d="M92.767,45.487l-1.629,7.638c0,0,2.365,0.878,3.246-0.816c0.881-1.694-0.304-2.889-0.304-2.889
			s3.122-0.33,2.991-2.744C96.938,44.262,93.234,43.292,92.767,45.487z"/>
	</g>
	<path display="inline" fill="#441D4B" d="M38.34,33.191c0,0-2.681,15.756,2.417,22.464c0.269-4.155,1.001-19.647,1.001-19.647
		s5.373-4.695,4.761-10.446c14.768,7.747,36.494,12.676,34.191-0.469c3.401,5.869,5.72,9.624,5.72,9.624l1.93,20.188
		c2.685-1.75,4.875-9.418,2.252-18.076c-2.321-7.667-0.153-12.441-0.153-12.441l-8.41-10.563l-31.324,3.638l-8.356,3.638
		l-3.99,5.047L38.34,33.191z"/>
	<path display="inline" fill="#D43F20" d="M110.514,111.791c-11.771,11.396-28.074,18.446-46.092,18.453h-0.155
		c-18.079-0.039-34.417-7.168-46.173-18.654c2.555-7.324,6.966-12.328,11.736-15.854c1.457-1.082,2.947-2.026,4.432-2.854
		c0.691-0.392,1.41-0.756,2.141-1.095c0.895-0.417,1.81-0.802,2.724-1.153c1.497-0.58,3.009-1.082,4.458-1.524
		c2.697-0.821,5.211-1.446,7.102-1.994c2.087-0.606,3.422-1.127,3.422-1.727v-1.655c2.67,1.975,7.474,5.532,7.956,5.937
		c0.677,0.56,2.094,4.919,2.094,4.919s0.88-4.183,1.984-5.135c0.739-0.639,5.333-3.577,8.288-5.44v1.375
		c0,0.521,0.982,0.978,2.595,1.492c2.338,0.736,5.997,1.576,9.866,2.873c1.186,0.391,2.398,0.834,3.591,1.329
		c0.997,0.411,1.985,0.86,2.948,1.355c0.521,0.267,1.036,0.548,1.545,0.841c0.359,0.208,0.725,0.43,1.084,0.658
		C101.84,97.535,107.504,103.008,110.514,111.791z"/>
	<path display="inline" fill="#AE3321" d="M77.025,86.882l-12.759,13.312l-13.58-13.077c2.087-0.606,3.422-1.127,3.422-1.727v-1.655
		c2.67,1.975,7.474,5.532,7.956,5.937c0.677,0.56,2.094,4.919,2.094,4.919s0.88-4.183,1.984-5.135
		c0.739-0.639,5.333-3.577,8.288-5.44v1.375C74.431,85.911,75.413,86.367,77.025,86.882z"/>
	<path display="inline" fill="#AE3321" d="M110.514,111.791c-11.771,11.396-28.074,18.446-46.092,18.453h-0.155
		c-18.079-0.039-34.417-7.168-46.173-18.654c2.555-7.324,6.966-12.328,11.736-15.854c3.605,9.272,14.081,30.533,34.545,30.533
		c20.605,0,29.035-22.676,31.685-32.331C101.84,97.535,107.504,103.008,110.514,111.791z"/>
	<path display="inline" fill="#FFFFFF" d="M69.815,54.948c-0.379,0.84-1.544,1.968-5.007,2.176
		c-4.201,0.254-5.957-1.342-6.573-2.176H69.815z"/>
	<path display="inline" fill="#441D4B" d="M60.309,61.715l3.79,1.222l3.907-1.222c0,0-0.151,3.457-3.907,6.026
		C60.651,65.272,60.309,61.715,60.309,61.715z"/>
</g>
<g display="none">
	<path display="inline" fill="#F9B145" d="M130.322,66.58c0,17.413-7.146,33.188-18.716,44.683
		c-11.739,11.694-28.087,18.955-46.178,18.981h-0.114c-18.035-0.007-34.368-7.201-46.107-18.815
		C7.581,99.921,0.322,84.072,0.322,66.58c0-35.154,29.15-63.658,64.993-63.658C101.229,2.922,130.322,31.426,130.322,66.58z"/>
	<path display="inline" fill="#441D4B" d="M38.887,45.363c0,0-1.475-22.486,2.155-25.55c3.629-3.065,46.519-4.154,48.9-0.096
		s3.517,21.308,2.382,25.646H38.887z"/>
	<path display="inline" fill="#441D4B" d="M38.546,40.122c0,0-0.68,27.74,1.021,29.948c1.645,2.205,3.006-1.104,3.006-1.104
		s1.077,4.773,3.119,5.807c2.042,1.033,3.063-1.836,3.063-1.836s6.635,10.401,10.889,0.897c4.311-9.503,0-28.471,0-28.471
		L38.546,40.122z"/>
	<path display="inline" fill="#441D4B" d="M92.608,40.122c0,0,0.737,27.74-0.965,29.948c-1.701,2.205-3.005-1.104-3.005-1.104
		s-1.135,4.773-3.177,5.807c-1.999,1.033-3.076-1.836-3.076-1.836s-6.636,10.401-10.889,0.897c-4.254-9.503,0-28.471,0-28.471
		L92.608,40.122z"/>
	<g display="inline">
		<g>
			<path fill="#9A4860" d="M111.606,111.263c-11.739,11.694-28.087,18.955-46.178,18.981h-0.114
				c-18.035-0.007-34.368-7.201-46.107-18.815c3.346-9.854,9.868-15.616,16.22-19.239c0.17-0.113,0.397-0.226,0.624-0.325
				c0.454-0.285,1.021-0.545,1.531-0.79c0.851-0.425,1.815-0.816,2.722-1.174c1.531-0.591,3.006-1.102,4.48-1.554
				c5.671-1.765,10.492-2.621,10.492-3.789V67.15c0-2.933,0-5.037,0-5.037h20.36c0,0,0,1.586,0,3.93v18.515
				c0,1.308,5.898,2.223,12.435,4.446c1.19,0.398,2.438,0.85,3.572,1.354c1.021,0.418,2.042,0.877,2.949,1.381
				c0.17,0.079,0.341,0.166,0.454,0.252c0.396,0.192,0.737,0.398,1.134,0.604C102.249,96.218,108.431,101.865,111.606,111.263z"/>
		</g>
		<path fill="#7B2E54" d="M75.637,66.043v12.675c-2.382,1.758-5.444,3.338-9.301,3.583c-5.671,0.352-9.188-1.971-11.059-3.855V67.15
			l19.849-1.818L75.637,66.043z"/>
		<path fill="#9A4860" d="M41.779,24.326c0,0-4.991,28.895,1.758,41.619c3.29,6.361,13.101,10.771,21.892,10.951
			c8.79,0.18,18.318-4.731,22.529-10.313c8.45-11.166,0.737-42.257,0.737-42.257S69.852,9.69,41.779,24.326z"/>
		<g>
			<path fill="#9A4860" d="M41.042,43.903c0,0-5.444-7.617-9.471-0.931C28.735,47.724,34.01,58,40.815,53.575L41.042,43.903z"/>
		</g>
		<g>
			<path fill="#9A4860" d="M89.942,43.838c0,0,5.501-7.617,9.528-0.931c2.835,4.751-2.496,15.027-9.244,10.602L89.942,43.838z"/>
		</g>
		<g>
			<g>
				<path fill="#441D4B" d="M57.205,42.742c0,1.447-1.191,0-2.666,0s-2.609,1.447-2.609,0s1.134-2.621,2.609-2.621
					S57.205,41.295,57.205,42.742z"/>
				<path fill="#441D4B" d="M78.982,42.742c0,1.447-1.19,0-2.665,0s-2.608,1.447-2.608,0s1.134-2.621,2.608-2.621
					S78.982,41.295,78.982,42.742z"/>
			</g>
		</g>
		<path fill="#F28F8D" d="M51.193,49.686c-1.077,1.687-3.573,2.048-5.501,0.809c-1.985-1.24-2.609-3.612-1.475-5.299
			c1.078-1.687,3.573-2.048,5.501-0.809C51.704,45.626,52.328,47.999,51.193,49.686z"/>
		<path fill="#F28F8D" d="M79.72,49.686c1.135,1.687,3.63,2.048,5.572,0.809c1.929-1.24,2.608-3.612,1.475-5.299
			s-3.644-2.048-5.572-0.809C79.267,45.626,78.586,47.999,79.72,49.686z"/>
		<path fill="#441D4B" d="M61.572,38.565c-0.113,0-0.227-0.011-0.284-0.035c-6.011-1.366-13.271-0.003-13.327,0.009
			c-0.737,0.139-1.475-0.328-1.588-1.047c-0.113-0.719,0.34-1.417,1.021-1.558c0.34-0.062,7.94-1.49,14.519,0.01
			c0.681,0.166,1.134,0.88,1.021,1.594C62.763,38.151,62.196,38.565,61.572,38.565z"/>
		<path fill="#441D4B" d="M83.689,39.111c-0.227,0-0.396-0.038-0.566-0.118c-0.113-0.035-5.161-2.174-11.569-0.098
			c-0.737,0.229-1.475-0.15-1.759-0.846c-0.227-0.697,0.171-1.447,0.852-1.675c7.542-2.42,13.327,0.093,13.61,0.201
			c0.681,0.303,0.922,1.09,0.681,1.757C84.654,38.822,84.144,39.111,83.689,39.111z"/>
		<path fill="#7B2E54" d="M37.186,43.917l1.701,7.78c0,0-2.382,0.894-3.289-0.832c-0.908-1.725,0.34-2.942,0.34-2.942
			s-3.176-0.336-3.005-2.795C33.045,42.668,36.731,41.681,37.186,43.917z"/>
		<path fill="#7B2E54" d="M93.912,43.917l-1.588,7.78c0,0,2.382,0.894,3.232-0.832c0.852-1.725-0.283-2.942-0.283-2.942
			s3.119-0.336,2.949-2.795C98.109,42.668,94.423,41.681,93.912,43.917z"/>
	</g>
	<g display="inline">
		<path fill="#503B8F" d="M37.752,30.961c0,0,45.371,5.257,60.13-0.524c14.745-5.781-5.559-12.867-5.559-12.867
			S37.639,16.634,37.752,30.961z"/>
		<path fill="#432772" d="M92.324,17.568c0,0-14.306,9.962-43.796,12.743c-3.403,0.318-6.976,0.544-10.775,0.65
			c0,0-5.444-23.096,18.772-29.334c0.851-0.212,1.701-0.405,2.552-0.577C86.369-4.159,92.324,17.568,92.324,17.568z"/>
	</g>
	<path display="inline" fill="#7B2E54" d="M65.655,51.415c-0.113,0-0.227-0.066-0.284-0.181c-0.057-0.163-0.057-0.363,0.17-0.446
		l4.65-2.348L67.13,37.603c0-0.176,0.113-0.359,0.227-0.407c0.228-0.05,0.397,0.055,0.454,0.232l3.119,11.097
		c0.057,0.151-0.057,0.312-0.17,0.383l-4.935,2.471C65.769,51.403,65.712,51.415,65.655,51.415z"/>
	<path display="inline" fill="#7E2A20" d="M71.1,60.925c-1.418,0.896-3.402,1.44-6.125,1.188c-4.14-0.385-6.465-2.124-7.656-3.969
		c-1.021-1.606-1.191-3.298-0.964-4.26c0.567-2.117,4.253,0.597,8.167,1.32c3.176,0.578,8.677-0.969,9.188-0.464
		C74.56,55.503,74.162,59.021,71.1,60.925z"/>
	<path display="inline" fill="#D43F20" d="M71.1,60.925c-1.418,0.896-3.402,1.44-6.125,1.188c-4.14-0.385-6.465-2.124-7.656-3.969
		C60.608,57.023,67.073,55.709,71.1,60.925z"/>
	<path display="inline" fill="#B4AFD8" d="M111.606,111.263c-4.423,4.439-9.527,8.236-15.198,11.242
		c-9.188,4.918-19.751,7.726-30.979,7.739h-0.114c-11.569-0.007-22.458-2.987-31.873-8.21c-5.274-2.887-10.038-6.464-14.235-10.605
		c2.211-6.67,5.955-11.461,10.151-14.985c1.928-1.686,4.027-3.08,6.068-4.254c0.17-0.113,0.397-0.226,0.624-0.325
		c0.68,5.449,4.253,21.668,23.592,24.276l5.671,7.34l6.579-7.466c18.049-2.714,22.246-16.399,23.153-24.024
		c0.396,0.192,0.737,0.398,1.134,0.604c1.531,0.929,3.063,1.983,4.65,3.204C105.255,99.351,109.225,104.268,111.606,111.263z"/>
	<path display="inline" fill="#9A4860" d="M33.442,122.034c-5.274-2.887-10.038-6.464-14.235-10.605
		c2.211-6.67,5.955-11.461,10.151-14.985C31.911,100.811,35.541,109.57,33.442,122.034z"/>
	<path display="inline" fill="#9A4860" d="M111.606,111.263c-4.423,4.439-9.527,8.236-15.198,11.242
		c-2.439-13.366,1.758-22.544,4.423-26.706C105.255,99.351,109.225,104.268,111.606,111.263z"/>
	<path display="inline" fill="#7B2E54" d="M47.734,92.765l16.447,3.679C64.181,96.443,56.694,89.223,47.734,92.765z"/>
	<path display="inline" fill="#7B2E54" d="M83.86,92.765l-16.504,3.679C67.356,96.443,74.843,89.223,83.86,92.765z"/>
	<path display="inline" fill="#FBBB21" d="M81.194,15.018c0,4.119-3.402,7.458-7.6,7.458c-4.253,0-7.656-3.339-7.656-7.458
		c0-4.119,3.403-7.458,7.656-7.458C77.792,7.56,81.194,10.898,81.194,15.018z"/>
	<path display="inline" fill="#F59C25" d="M77.338,15.018c0,2.068-1.701,3.745-3.743,3.745c-2.155,0-3.856-1.677-3.856-3.745
		c0-2.069,1.701-3.746,3.856-3.746C75.637,11.271,77.338,12.949,77.338,15.018z"/>
	<path display="inline" opacity="0.3" fill="#441D4B" d="M48.528,30.311c-3.403,0.318-6.976,0.544-10.775,0.65
		c0,0-5.444-23.096,18.772-29.334C51.137,7.023,43.934,17.224,48.528,30.311z"/>
</g>
<g>
	<path fill="#6B9EC5" d="M130.322,68.896c0,17.441-7.69,33.192-20.037,44.37c-11.14,10.095-26.081,16.481-42.595,17.032
		c-0.786,0.032-1.572,0.045-2.365,0.045c-0.759,0-1.518-0.013-2.277-0.038c-17.801-0.576-33.779-7.924-45.156-19.396
		C6.996,99.924,0.322,85.146,0.322,68.896c0-33.937,29.103-61.448,65.003-61.448C101.225,7.448,130.322,34.96,130.322,68.896z"/>
	<path fill="#B34F98" d="M100.332,72.533c-10.823-2.631-9.747-13.56-5.671-25.986s-4.01-25.268-10.302-29.069
		c-10.015-6.05-31.015-6.218-41.029-0.167c-6.292,3.801-14.378,16.644-10.301,29.069c4.076,12.426,5.422,24.707-5.671,25.986
		C16.265,73.646,10.274,88.476,13.56,97.449c3.661,9.997,10.063,22.389,37.129,6.501c6.49-3.811,10.61-10.658,13.13-18.862
		c2.515,8.278,6.646,15.193,13.18,19.029c27.066,15.888,36.818,5.108,39.162-3.298C120.068,86.813,114.828,76.058,100.332,72.533z"
		/>
	<path opacity="0.2" fill="#441D4B" d="M48.763,61.4c0,0,0.389,13.481-12.966,18.625c-13.355,5.144-9.382,20.225,12.967,28.233
		c22.35,8.009,52.74-3.342,49.688-19.782S75.69,84.066,77.569,60.153L48.763,61.4z"/>
	<g>
		<g>
			<path fill="#FCD6B6" d="M110.285,113.267c-11.14,10.095-26.081,16.481-42.595,17.032c-1.342,0.007-2.677,0.007-4.019,0.007
				h-0.624c-17.801-0.576-33.779-7.924-45.156-19.396c3.442-8.764,9.69-13.99,15.775-17.334c0.69-0.384,1.409-0.743,2.141-1.076
				c0.895-0.409,1.81-0.788,2.724-1.134c1.498-0.57,3.009-1.063,4.459-1.499c2.121-0.634,4.12-1.152,5.8-1.602
				c2.819-0.762,4.723-1.351,4.723-2.056V69.408c0-2.831,0-4.862,0-4.862h20.321c0,0,0,1.531,0,3.792V86.21
				c0,1.05,4.093,1.838,9.223,3.306c1.044,0.294,2.135,0.621,3.239,0.986c1.186,0.384,2.398,0.819,3.591,1.307
				c0.996,0.403,1.985,0.846,2.947,1.332c0.522,0.263,1.037,0.538,1.546,0.826C100.764,97.625,107.208,103.428,110.285,113.267z"/>
		</g>
		<path fill="#FAC5A7" d="M73.836,68.339v12.234c-2.304,1.697-5.407,3.222-9.276,3.459c-5.638,0.339-9.154-1.902-11.045-3.722
			V69.408l19.854-1.755L73.836,68.339z"/>
		<path fill="#FCD6B6" d="M42.248,28.075c0,0-6.887,25.602-0.178,37.882c3.355,6.141,12.905,9.92,21.7,10.093
			c8.795,0.174,16.833-3.26,21.045-8.647C93.238,56.626,84.2,28.075,84.2,28.075S70.306,13.949,42.248,28.075z"/>
		<g>
			<path fill="#FCD6B6" d="M40.665,49.725c0,0-5.179-6.934-8.949-0.848c-2.679,4.326,2.334,13.681,8.703,9.653L40.665,49.725z"/>
		</g>
		<g>
			<path fill="#FCD6B6" d="M86.795,49.666c0,0,5.179-6.935,8.949-0.848c2.679,4.326-2.335,13.681-8.704,9.652L86.795,49.666z"/>
		</g>
		<g>
			<g>
				<ellipse fill="#441D4B" cx="52.787" cy="45.85" rx="2.657" ry="2.529"/>
				<ellipse fill="#441D4B" cx="74.565" cy="45.85" rx="2.657" ry="2.529"/>
			</g>
		</g>
		<path fill="#F28F8D" d="M49.436,52.552c-1.124,1.628-3.607,1.978-5.546,0.781c-1.939-1.197-2.6-3.487-1.476-5.114
			c1.125-1.628,3.607-1.978,5.547-0.781C49.899,48.634,50.56,50.924,49.436,52.552z"/>
		<path fill="#F28F8D" d="M77.942,52.552c1.125,1.628,3.608,1.978,5.548,0.781c1.938-1.197,2.599-3.487,1.475-5.114
			c-1.124-1.628-3.607-1.978-5.547-0.781C77.479,48.634,76.819,50.924,77.942,52.552z"/>
		<path fill="#F7B28F" d="M62.876,53.748c-1.015,0-2.005-0.334-2.546-1.357c-0.356-0.673,0.149-1.155,0.684-1.667
			c0.564-0.539,1.267-1.211,1.479-2.397c0.511-2.86-0.695-7.667-0.708-7.715c-0.043-0.172,0.068-0.345,0.25-0.387
			c0.183-0.038,0.365,0.065,0.409,0.236c0.051,0.202,1.25,4.982,0.717,7.971c-0.248,1.387-1.067,2.17-1.665,2.742
			c-0.55,0.525-0.681,0.7-0.56,0.93c1.02,1.928,4.206,0.482,4.238,0.467c0.167-0.077,0.371-0.013,0.453,0.147
			c0.083,0.158,0.013,0.35-0.154,0.428C64.831,53.444,63.843,53.748,62.876,53.748z"/>
		<path fill="#B165A5" d="M48.68,41.849c-0.184,0-0.368-0.07-0.501-0.209c-0.25-0.261-0.233-0.662,0.041-0.9
			c0.101-0.087,2.532-2.145,7.345-1.324c0.369,0.063,0.613,0.396,0.546,0.745s-0.417,0.579-0.788,0.517
			c-4.108-0.705-6.105,0.938-6.189,1.008C49.004,41.794,48.842,41.849,48.68,41.849z"/>
		<path fill="#B165A5" d="M77.569,41.177c-0.163,0-0.326-0.055-0.456-0.167c-0.091-0.076-2.087-1.709-6.188-1.007
			c-0.369,0.063-0.721-0.169-0.787-0.517c-0.067-0.348,0.178-0.681,0.546-0.744c4.815-0.821,7.244,1.235,7.345,1.323
			c0.275,0.24,0.294,0.645,0.039,0.905C77.935,41.108,77.752,41.177,77.569,41.177z"/>
		<path fill="#F6AB80" d="M37.061,49.737l1.537,7.083c0,0-2.23,0.814-3.062-0.757c-0.831-1.571,0.287-2.679,0.287-2.679
			s-2.945-0.306-2.821-2.544S36.619,47.702,37.061,49.737z"/>
		<path fill="#F6AB80" d="M90.559,49.737l-1.537,7.083c0,0,2.231,0.814,3.062-0.757c0.831-1.571-0.285-2.679-0.285-2.679
			s2.945-0.306,2.819-2.544C94.493,48.601,91,47.702,90.559,49.737z"/>
	</g>
	<path fill="#B34F98" d="M78.578,21.797c-7.051-1.37-25.792,0-25.792,0l-13.653,6.295l-0.536,9.497c0,0,2.28-0.033,5.869-0.077
		l1.458-5.421l0.808,5.395c0.298-0.004,0.602-0.007,0.911-0.011l2.486-7.217l0.577,7.184c4.783-0.051,10.437-0.101,15.926-0.129
		l0.664-9.888l1.096,9.88c1.201-0.005,2.388-0.008,3.55-0.011l5.279-11.036l0.943,11.042c5.525,0.025,9.727,0.107,10.856,0.288
		C93.208,38.255,85.628,23.167,78.578,21.797z"/>
	<path fill="#CD584A" d="M64.291,59.034c-3.896,0-5.865-1.85-5.967-1.949c-0.261-0.253-0.256-0.659,0.011-0.906
		c0.267-0.247,0.694-0.243,0.956,0.008c0.116,0.11,2.749,2.513,8.172,1.148c0.363-0.09,0.732,0.112,0.829,0.455
		c0.096,0.341-0.119,0.692-0.48,0.784C66.501,58.902,65.328,59.034,64.291,59.034z"/>
	<path fill="#F18946" d="M57.582,12.856c0,0,1.47-11.854-7.278-12.512c-2.128,3.293-2.999,5.113-2.999,5.113s8.521,2.51,7.002,9.425
		L57.582,12.856z"/>
	<path fill="#F9B145" d="M96.76,24.16c-1.478,3.074-3.367,5.24-3.367,5.24s-33.034-7.636-61.331,7.507c0,0-5.157-1.902-5.482-8.57
		c-0.163-3.408,1.789-6.963,5.814-9.852c3.693-2.652,9.141-4.741,16.283-5.631c11.878-1.48,31.726-13.17,45.136-3.786
		C100.141,13.501,98.874,19.759,96.76,24.16z"/>
	<path fill="#F18946" d="M96.76,24.16c-1.478,3.074-3.367,5.24-3.367,5.24s-33.034-7.636-61.331,7.507c0,0-5.157-1.902-5.482-8.57
		c-0.163-3.408,1.789-6.963,5.814-9.852c-0.888,4.567-0.285,10.19,8.287,9.755C53.467,27.587,79.765,12.618,96.76,24.16z"/>
	<path fill="#F18946" d="M110.285,113.267c-5.902,5.355-12.875,9.66-20.579,12.606c-2.948,1.128-6.004,2.056-9.148,2.767
		c-4.146,0.948-8.456,1.513-12.867,1.659c-1.342,0.007-2.677,0.007-4.019,0.007h-0.624c-4.947-0.16-9.751-0.846-14.358-1.992
		c-3.178-0.794-6.268-1.813-9.236-3.03c-8.206-3.369-15.531-8.295-21.562-14.373c3.442-8.764,9.69-13.99,15.775-17.334
		c0.69-0.384,1.409-0.743,2.141-1.076c0.895-0.409,1.81-0.788,2.724-1.134c1.498-0.57,3.009-1.063,4.459-1.499
		c0.63-0.191,1.253-0.365,1.857-0.538c0.006-0.006,0.006-0.006,0.013,0c0.021-0.006,0.034-0.012,0.047-0.012
		c1.403-0.397,2.717-0.743,3.883-1.052c0.508,3.498,3.144,14.649,16.249,14.964c10.815,0.257,15.911-8.41,18.018-13.714
		c0.922,0.263,1.884,0.544,2.859,0.864c0,0,0.014,0,0.033,0.007c0.116,0.038,0.231,0.076,0.347,0.115
		c1.186,0.384,2.398,0.819,3.591,1.307c0.996,0.403,1.985,0.846,2.947,1.332c0.522,0.263,1.037,0.538,1.546,0.826
		C100.764,97.625,107.208,103.428,110.285,113.267z"/>
	<path opacity="0.2" fill="#441D4B" d="M89.706,125.873c-2.948,1.128-6.004,2.056-9.148,2.767
		c-4.146,0.948-8.456,1.513-12.867,1.659c-1.342,0.007-2.677,0.007-4.019,0.007h-0.624c-4.947-0.16-9.751-0.846-14.358-1.992
		c-3.178-0.794-6.268-1.813-9.236-3.03l5.116-15.994c0,0,9.127,30.125,40.359,10.825C86.988,122.126,88.555,124.047,89.706,125.873z
		"/>
	<path fill="#432772" d="M48.69,128.313c-11.967-2.985-22.585-9.121-30.798-17.403c0,0,3.049-16.61,4.032-17.353
		c0.949-0.718,21.629-4.023,22.924-4.229c0.006-0.006,0.006-0.006,0.013,0c0.034-0.012,0.047-0.012,0.047-0.012L48.69,128.313z"/>
	<path fill="#432772" d="M110.285,113.267c-8.159,7.398-18.363,12.799-29.728,15.373l5.36-38.26c0,0,0.014,0,0.033,0.007
		c0.929,0.166,20.479,3.728,21.447,4.452C108.38,95.581,110.285,113.267,110.285,113.267z"/>
	<ellipse fill="#FFFFFF" cx="65.322" cy="108.814" rx="2.316" ry="2.188"/>
</g>
</svg>
